<svg viewBox="0 0 24 24" xmlns="http://www.w3.org/2000/svg">
    <path fill-rule="evenodd" clip-rule="evenodd" d="M12.0168 1.39001C10.2972 1.39001 8.84107 2.33635 7.8505 3.73017C7.36218 4.41729 6.97684 5.22346 6.71197 6.11113H3.29002H2.33795V7.0632V20.3312C2.33795 21.0973 2.8411 21.679 3.30493 22.0147C3.7974 22.371 4.44855 22.61 5.1237 22.61H18.8763C19.5514 22.61 20.2026 22.371 20.6951 22.0147C21.1589 21.679 21.662 21.0973 21.662 20.3312V7.0632V6.11113H20.71H17.3216C17.0568 5.22346 16.6714 4.41729 16.1831 3.73017C15.1925 2.33635 13.7364 1.39001 12.0168 1.39001ZM15.774 8.01527C15.813 8.34917 15.8335 8.69542 15.8335 9.05211C15.8335 9.57792 16.2597 10.0042 16.7855 10.0042C17.3113 10.0042 17.7376 9.57792 17.7376 9.05211C17.7376 8.70082 17.721 8.35469 17.6886 8.01527H19.7579V20.2924C19.747 20.3131 19.7068 20.3794 19.5788 20.472C19.3837 20.6132 19.118 20.7059 18.8763 20.7059H5.1237C4.88201 20.7059 4.61632 20.6132 4.42115 20.472C4.29322 20.3794 4.25304 20.3131 4.24208 20.2924V8.01527H6.345C6.31259 8.35469 6.29602 8.70082 6.29602 9.05211C6.29602 9.57792 6.72228 10.0042 7.24809 10.0042C7.7739 10.0042 8.20016 9.57792 8.20016 9.05211C8.20016 8.69542 8.22065 8.34917 8.25961 8.01527H15.774ZM15.3103 6.11113C15.1237 5.63214 14.8937 5.20281 14.631 4.83322C13.9078 3.81563 12.9796 3.29415 12.0168 3.29415C11.054 3.29415 10.1258 3.81563 9.40259 4.83322C9.13994 5.20281 8.9099 5.63214 8.72327 6.11113H15.3103Z"></path>
</svg>