<svg viewBox="0 0 21 21" fill="none" xmlns="http://www.w3.org/2000/svg">
    <path fill="#2D5D2A" d="M10.5 18.2876L14.8312 13.9563C15.6878 13.0997 16.2711 12.0083 16.5073 10.8202C16.7436 9.63208 16.6223 8.40058 16.1587 7.28141C15.6951 6.16225 14.91 5.2057 13.9028 4.5327C12.8956 3.8597 11.7114 3.5005 10.5 3.5005C9.28861 3.5005 8.10443 3.8597 7.09719 4.5327C6.08996 5.2057 5.3049 6.16225 4.84129 7.28141C4.37769 8.40058 4.25636 9.63208 4.49264 10.8202C4.72892 12.0083 5.31221 13.0997 6.16875 13.9563L10.5 18.2876ZM10.5 20.7621L4.9315 15.1936C3.83017 14.0922 3.08016 12.689 2.7763 11.1614C2.47245 9.63382 2.62841 8.05043 3.22445 6.61147C3.8205 5.1725 4.82986 3.9426 6.12489 3.07729C7.41993 2.21198 8.94247 1.75012 10.5 1.75012C12.0575 1.75012 13.5801 2.21198 14.8751 3.07729C16.1701 3.9426 17.1795 5.1725 17.7755 6.61147C18.3716 8.05043 18.5275 9.63382 18.2237 11.1614C17.9198 12.689 17.1698 14.0922 16.0685 15.1936L10.5 20.7621ZM10.5 11.3751C10.9641 11.3751 11.4092 11.1907 11.7374 10.8625C12.0656 10.5343 12.25 10.0892 12.25 9.62505C12.25 9.16092 12.0656 8.71581 11.7374 8.38762C11.4092 8.05943 10.9641 7.87505 10.5 7.87505C10.0359 7.87505 9.59075 8.05943 9.26256 8.38762C8.93437 8.71581 8.75 9.16092 8.75 9.62505C8.75 10.0892 8.93437 10.5343 9.26256 10.8625C9.59075 11.1907 10.0359 11.3751 10.5 11.3751ZM10.5 13.1251C9.57174 13.1251 8.6815 12.7563 8.02512 12.0999C7.36874 11.4436 7 10.5533 7 9.62505C7 8.6968 7.36874 7.80656 8.02512 7.15018C8.6815 6.4938 9.57174 6.12505 10.5 6.12505C11.4283 6.12505 12.3185 6.4938 12.9749 7.15018C13.6312 7.80656 14 8.6968 14 9.62505C14 10.5533 13.6312 11.4436 12.9749 12.0999C12.3185 12.7563 11.4283 13.1251 10.5 13.1251Z"></path>
</svg>