<svg width="24" height="23" viewBox="0 0 24 23" xmlns="http://www.w3.org/2000/svg">
    <path d="M12.1136 1.48387C12.2053 1.29806 12.4702 1.29806 12.562 1.48387L15.3678 7.16916C15.6227 7.68566 16.1155 8.04365 16.6855 8.12648L22.9595 9.03816C23.1646 9.06795 23.2465 9.31994 23.0981 9.46458L18.5581 13.89C18.1457 14.292 17.9575 14.8712 18.0548 15.4389L19.1266 21.6877C19.1616 21.8919 18.9472 22.0476 18.7638 21.9512L13.1521 19.001C12.6423 18.7329 12.0332 18.7329 11.5234 19.001L5.91171 21.9512C5.7283 22.0476 5.51395 21.8919 5.54897 21.6877L6.62071 15.4389C6.71808 14.8712 6.52987 14.292 6.11742 13.89L1.57745 9.46458C1.42907 9.31995 1.51095 9.06795 1.716 9.03816L7.99009 8.12648C8.56008 8.04365 9.05282 7.68566 9.30773 7.16916L12.1136 1.48387Z"></path>
</svg>